<?xml version="1.0" encoding="UTF-8" standalone="no" ?>
<!DOCTYPE svg PUBLIC "-//W3C//DTD SVG 1.1//EN" "http://www.w3.org/Graphics/SVG/1.1/DTD/svg11.dtd">
<svg xmlns="http://www.w3.org/2000/svg" xmlns:xlink="http://www.w3.org/1999/xlink" version="1.1" width="1280" height="1024" viewBox="0 0 1280 1024" xml:space="preserve">
<desc>Created with Fabric.js 5.3.0</desc>
<defs>
</defs>
<g transform="matrix(1 0 0 1 640 512)" id="background-logo"  >
<rect style="stroke: none; stroke-width: 0; stroke-dasharray: none; stroke-linecap: butt; stroke-dashoffset: 0; stroke-linejoin: miter; stroke-miterlimit: 4; fill: rgb(11,27,53); fill-rule: nonzero; opacity: 1;"  paint-order="stroke"  x="-640" y="-512" rx="0" ry="0" width="1280" height="1024" />
</g>
<g transform="matrix(1.9211538461538462 0 0 1.9211538461538462 831.9595661202211 501.6318136130428)" id="text-logo"  >
<g style=""  paint-order="stroke"   >
		<g transform="matrix(1 0 0 1 0 0)" id="text-logo-path-0"  >
<path style="stroke: none; stroke-width: 1.5972222222222223; stroke-dasharray: none; stroke-linecap: butt; stroke-dashoffset: 0; stroke-linejoin: miter; stroke-miterlimit: 4; fill: rgb(116,189,236); fill-rule: nonzero; opacity: 1;"  paint-order="stroke"  transform=" translate(-199.46499999999997, 41.745)" d="M 48.3 -77.28 L 48.3 -85.1 L 0.92 -85.1 L 0.92 -77.28 L 20.47 -77.28 L 20.47 0 L 28.98 0 L 28.98 -77.28 Z M 91.66 -70.61 L 91.66 -85.1 L 83.14 -85.1 L 83.14 -70.61 Z M 91.66 0 L 91.66 -63.02 L 83.14 -63.02 L 83.14 0 Z M 160.66 -55.2 L 160.66 -63.02 L 145.94 -63.02 L 145.94 -85.1 L 137.43 -85.1 L 137.43 -63.02 L 124.31 -63.02 L 124.31 -55.2 L 137.43 -55.2 L 137.43 0 L 145.94 0 L 145.94 -55.2 Z M 248.98 0 L 248.98 -35.42 C 248.98 -52.44 236.56 -64.4 220.92 -64.4 C 212.64 -64.4 205.51 -60.72 201.83 -53.82 L 201.83 -85.1 L 193.32 -85.1 L 193.32 0 L 201.83 0 L 201.83 -36.57 C 201.83 -50.14 211.49 -56.12 220.69 -56.12 C 232.19 -56.12 240.47 -48.07 240.47 -34.96 L 240.47 0 Z M 295.44 -70.61 L 295.44 -85.1 L 286.93 -85.1 L 286.93 -70.61 Z M 295.44 0 L 295.44 -63.02 L 286.93 -63.02 L 286.93 0 Z M 398.01 0 L 398.01 -63.02 L 389.96 -63.02 L 389.96 -50.6 C 389.73 -51.29 383.75 -64.4 365.13 -64.4 C 346.03 -64.4 331.54 -49.22 331.54 -31.74 C 331.54 -20.7 336.83 -13.11 337.52 -12.19 C 347.19 -1.38 357.76 1.61 365.58 1.61 C 375.25 1.61 385.37 -2.99 389.96 -12.19 L 389.96 0 Z M 389.96 -31.28 C 389.96 -18.4 379.15 -6.67 365.58 -6.67 C 352.01 -6.67 340.05 -17.48 340.05 -31.05 C 340.05 -44.85 351.32 -56.12 365.35 -56.12 C 379.38 -56.12 389.96 -45.08 389.96 -31.28 Z" stroke-linecap="round" />
</g>
</g>
</g>
<g transform="matrix(1.2704243809948699 0 0 1.2704243809948699 217.29812500000003 512)" id="logo-logo"  >
<g style=""  paint-order="stroke"   >
		<g transform="matrix(0.25 0 0 -0.25 -77.45194999999995 103.94806250000002)"  >
<path style="stroke: none; stroke-width: 1; stroke-dasharray: none; stroke-linecap: butt; stroke-dashoffset: 0; stroke-linejoin: miter; stroke-miterlimit: 10; fill: rgb(180,220,23); fill-rule: nonzero; opacity: 1;"  paint-order="stroke"  transform=" translate(-246.75799999999998, -528.6054999999999)" d="M 288.219 553.512 L 205.297 539.6949999999999 C 219.512 526.8749999999999 234.488 514.934 249.988 503.69899999999996 C 263.195 519.9649999999999 276.098 536.457 288.219 553.512" stroke-linecap="round" />
</g>
		<g transform="matrix(0.25 0 0 -0.25 -58.81494999999995 103.52906250000004)"  >
<path style="stroke: none; stroke-width: 1; stroke-dasharray: none; stroke-linecap: butt; stroke-dashoffset: 0; stroke-linejoin: miter; stroke-miterlimit: 10; fill: rgb(143,166,43); fill-rule: nonzero; opacity: 1;"  paint-order="stroke"  transform=" translate(-321.1755, -530.281)" d="M 288.219 553.512 C 276.098 536.457 263.195 519.9649999999999 249.988 503.69899999999996 C 256.695 498.84399999999994 263.555 494.21899999999994 270.488 489.703 C 309.543 518.355 351.488 544.0699999999999 392.363 570.8589999999999 L 288.219 553.512" stroke-linecap="round" />
</g>
		<g transform="matrix(0.25 0 0 -0.25 -44.42994999999996 104.46006250000002)"  >
<path style="stroke: none; stroke-width: 1; stroke-dasharray: none; stroke-linecap: butt; stroke-dashoffset: 0; stroke-linejoin: miter; stroke-miterlimit: 10; fill: rgb(180,166,28); fill-rule: nonzero; opacity: 1;"  paint-order="stroke"  transform=" translate(-378.617, -526.5645)" d="M 270.488 489.703 C 283.133 481.465 296.102 473.71099999999996 309.43 466.54299999999995 C 354.35900000000004 477.203 399.023 488.71899999999994 443.504 500.83199999999994 C 459.59000000000003 528.9219999999999 474.641 557.3399999999999 486.74600000000004 586.5859999999999 L 392.363 570.859 C 351.488 544.07 309.543 518.355 270.488 489.703" stroke-linecap="round" />
</g>
		<g transform="matrix(0.25 0 0 -0.25 -44.96794999999997 120.01406250000005)"  >
<path style="stroke: none; stroke-width: 1; stroke-dasharray: none; stroke-linecap: butt; stroke-dashoffset: 0; stroke-linejoin: miter; stroke-miterlimit: 10; fill: rgb(153,212,32); fill-rule: nonzero; opacity: 1;"  paint-order="stroke"  transform=" translate(-376.467, -464.455)" d="M 400.422 428.078 C 414.797 452.27299999999997 429.535 476.42999999999995 443.504 500.832 C 399.023 488.719 354.35900000000004 477.203 309.43 466.543 C 338.309 451.016 368.711 438.043 400.422 428.078" stroke-linecap="round" />
</g>
		<g transform="matrix(0.25 0 0 -0.25 -1.9499499999999443 88.01306250000007)"  >
<path style="stroke: none; stroke-width: 1; stroke-dasharray: none; stroke-linecap: butt; stroke-dashoffset: 0; stroke-linejoin: miter; stroke-miterlimit: 10; fill: rgb(91,160,66); fill-rule: nonzero; opacity: 1;"  paint-order="stroke"  transform=" translate(-548.2405, -592.2345)" d="M 570.293 600.5 L 526.188 593.156 C 539.93 590.2339999999999 553.609 587.1719999999999 567.2379999999999 583.9689999999999 C 568.262 589.477 569.371 594.973 570.2929999999999 600.4999999999999" stroke-linecap="round" />
</g>
		<g transform="matrix(0.25 0 0 -0.25 -12.685949999999934 99.34306250000006)"  >
<path style="stroke: none; stroke-width: 1; stroke-dasharray: none; stroke-linecap: butt; stroke-dashoffset: 0; stroke-linejoin: miter; stroke-miterlimit: 10; fill: rgb(93,188,51); fill-rule: nonzero; opacity: 1;"  paint-order="stroke"  transform=" translate(-505.371, -546.9939999999999)" d="M 526.188 593.156 L 486.746 586.5859999999999 C 474.64099999999996 557.3399999999999 459.59 528.9219999999999 443.50399999999996 500.8319999999999 C 481.34799999999996 511.14499999999987 519.082 521.8519999999999 556.699 532.9179999999999 C 560.641 549.8749999999999 564.0939999999999 566.8909999999998 567.2379999999999 583.9689999999999 C 553.6089999999999 587.1719999999999 539.93 590.2339999999999 526.188 593.156" stroke-linecap="round" />
</g>
		<g transform="matrix(0.25 0 0 -0.25 -19.39994999999999 116.67706250000006)"  >
<path style="stroke: none; stroke-width: 1; stroke-dasharray: none; stroke-linecap: butt; stroke-dashoffset: 0; stroke-linejoin: miter; stroke-miterlimit: 10; fill: rgb(115,168,44); fill-rule: nonzero; opacity: 1;"  paint-order="stroke"  transform=" translate(-478.56050000000005, -477.7794999999999)" d="M 443.504 500.832 C 429.535 476.43 414.797 452.273 400.422 428.078 C 406.605 426.145 412.85200000000003 424.359 419.125 422.64099999999996 C 458.23 437.902 497.781 448.72999999999996 535.902 454.20699999999994 C 543.5200000000001 480.3519999999999 550.5780000000001 506.56999999999994 556.6990000000001 532.9179999999999 C 519.0820000000001 521.8519999999999 481.34800000000007 511.14499999999987 443.5040000000001 500.8319999999999" stroke-linecap="round" />
</g>
		<g transform="matrix(0.25 0 0 -0.25 -19.661949999999933 128.68506250000004)"  >
<path style="stroke: none; stroke-width: 1; stroke-dasharray: none; stroke-linecap: butt; stroke-dashoffset: 0; stroke-linejoin: miter; stroke-miterlimit: 10; fill: rgb(108,198,46); fill-rule: nonzero; opacity: 1;"  paint-order="stroke"  transform=" translate(-477.5135, -429.834)" d="M 419.125 422.641 C 451.957 413.67600000000004 486.03499999999997 407.82 521.063 405.461 C 526.2379999999999 421.684 531.152 437.93 535.902 454.207 C 497.78100000000006 448.73 458.23 437.902 419.12500000000006 422.641" stroke-linecap="round" />
</g>
		<g transform="matrix(0.25 0 0 -0.25 4.508050000000026 127.78206250000002)"  >
<path style="stroke: none; stroke-width: 1; stroke-dasharray: none; stroke-linecap: butt; stroke-dashoffset: 0; stroke-linejoin: miter; stroke-miterlimit: 10; fill: rgb(187,144,27); fill-rule: nonzero; opacity: 1;"  paint-order="stroke"  transform=" translate(-574.0255, -433.4375)" d="M 535.902 454.207 C 531.152 437.93 526.238 421.68399999999997 521.063 405.461 C 532.609 404.688 544.242 404.219 556.004 404.219 C 578.285 404.219 600.219 405.691 621.777 408.40999999999997 C 623.859 426.402 625.508 444.51199999999994 626.988 462.65599999999995 C 603.609 460.29299999999995 580.168 458.2579999999999 556.6370000000001 456.71099999999996 C 549.7810000000001 456.07399999999996 542.859 455.203 535.902 454.20699999999994" stroke-linecap="round" />
</g>
		<g transform="matrix(0.25 0 0 -0.25 7.099050000000034 109.86606250000003)"  >
<path style="stroke: none; stroke-width: 1; stroke-dasharray: none; stroke-linecap: butt; stroke-dashoffset: 0; stroke-linejoin: miter; stroke-miterlimit: 10; fill: rgb(153,195,33); fill-rule: nonzero; opacity: 1;"  paint-order="stroke"  transform=" translate(-584.3710000000001, -504.9765)" d="M 535.902 454.207 C 542.859 455.203 549.7810000000001 456.074 556.6370000000001 456.711 C 580.168 458.25800000000004 603.609 460.293 626.988 462.656 C 629.5120000000001 493.598 631.383 524.691 632.84 555.746 C 607.488 548.0269999999999 582.113 540.395 556.6990000000001 532.918 C 550.5780000000001 506.57 543.5200000000001 480.352 535.902 454.207" stroke-linecap="round" />
</g>
		<g transform="matrix(0.25 0 0 -0.25 9.765050000000087 96.47606250000004)"  >
<path style="stroke: none; stroke-width: 1; stroke-dasharray: none; stroke-linecap: butt; stroke-dashoffset: 0; stroke-linejoin: miter; stroke-miterlimit: 10; fill: rgb(94,165,50); fill-rule: nonzero; opacity: 1;"  paint-order="stroke"  transform=" translate(-595.0175, -558.4435000000001)" d="M 567.238 583.969 C 564.094 566.8910000000001 560.6410000000001 549.875 556.6990000000001 532.918 C 582.113 540.395 607.488 548.027 632.84 555.746 C 633.0160000000001 559.598 633.164 563.422 633.336 567.27 C 611.465 573.25 589.4060000000001 578.758 567.238 583.9689999999999" stroke-linecap="round" />
</g>
		<g transform="matrix(0.25 0 0 -0.25 11.322050000000047 88.75006250000004)"  >
<path style="stroke: none; stroke-width: 1; stroke-dasharray: none; stroke-linecap: butt; stroke-dashoffset: 0; stroke-linejoin: miter; stroke-miterlimit: 10; fill: rgb(113,200,45); fill-rule: nonzero; opacity: 1;"  paint-order="stroke"  transform=" translate(-601.2360000000001, -589.2950000000001)" d="M 635.234 611.32 L 570.293 600.5 C 569.371 594.973 568.2620000000001 589.477 567.238 583.969 C 589.4060000000001 578.758 611.465 573.25 633.336 567.2700000000001 C 634 581.9730000000001 634.648 596.676 635.234 611.32" stroke-linecap="round" />
</g>
		<g transform="matrix(0.25 0 0 -0.25 36.081050000000005 86.68906250000006)"  >
<path style="stroke: none; stroke-width: 1; stroke-dasharray: none; stroke-linecap: butt; stroke-dashoffset: 0; stroke-linejoin: miter; stroke-miterlimit: 10; fill: rgb(112,199,45); fill-rule: nonzero; opacity: 1;"  paint-order="stroke"  transform=" translate(-700.0975, -597.5215000000001)" d="M 764.492 596.512 C 765.313 608.7539999999999 766.125 620.996 766.8589999999999 633.246 L 635.234 611.32 C 634.648 596.676 634 581.9730000000001 633.336 567.2700000000001 C 639.758 565.5040000000001 646.145 563.6250000000001 652.539 561.7970000000001 C 689.887 573.2380000000002 727.1949999999999 584.8130000000001 764.492 596.5120000000002" stroke-linecap="round" />
</g>
		<g transform="matrix(0.25 0 0 -0.25 21.704050000000052 95.70806250000007)"  >
<path style="stroke: none; stroke-width: 1; stroke-dasharray: none; stroke-linecap: butt; stroke-dashoffset: 0; stroke-linejoin: miter; stroke-miterlimit: 10; fill: rgb(134,147,37); fill-rule: nonzero; opacity: 1;"  paint-order="stroke"  transform=" translate(-642.6895, -561.508)" d="M 652.539 561.797 C 646.145 563.625 639.758 565.504 633.336 567.27 C 633.164 563.422 633.016 559.598 632.84 555.746 C 639.4100000000001 557.742 645.969 559.785 652.539 561.797" stroke-linecap="round" />
</g>
		<g transform="matrix(0.25 0 0 -0.25 38.189050000000066 95.56606250000002)"  >
<path style="stroke: none; stroke-width: 1; stroke-dasharray: none; stroke-linecap: butt; stroke-dashoffset: 0; stroke-linejoin: miter; stroke-miterlimit: 10; fill: rgb(159,214,30); fill-rule: nonzero; opacity: 1;"  paint-order="stroke"  transform=" translate(-708.5155, -562.0764999999999)" d="M 764.492 596.512 C 727.1949999999999 584.813 689.887 573.2379999999999 652.539 561.7969999999999 C 688.516 551.5269999999999 724.09 540.199 759.207 527.641 C 761.148 550.598 762.945 573.5509999999999 764.492 596.512" stroke-linecap="round" />
</g>
		<g transform="matrix(0.25 0 0 -0.25 34.328050000000076 108.05006250000005)"  >
<path style="stroke: none; stroke-width: 1; stroke-dasharray: none; stroke-linecap: butt; stroke-dashoffset: 0; stroke-linejoin: miter; stroke-miterlimit: 10; fill: rgb(183,156,45); fill-rule: nonzero; opacity: 1;"  paint-order="stroke"  transform=" translate(-693.0975000000001, -512.2265)" d="M 652.539 561.797 C 645.9689999999999 559.7850000000001 639.41 557.7420000000001 632.84 555.746 C 631.383 524.691 629.5120000000001 493.59799999999996 626.988 462.65599999999995 C 669.75 466.965 712.2810000000001 472.453 754.715 478.44499999999994 C 756.375 494.84399999999994 757.8090000000001 511.24199999999996 759.207 527.641 C 724.09 540.199 688.516 551.5269999999999 652.539 561.7969999999999" stroke-linecap="round" />
</g>
		<g transform="matrix(0.25 0 0 -0.25 33.113050000000044 125.28006250000007)"  >
<path style="stroke: none; stroke-width: 1; stroke-dasharray: none; stroke-linecap: butt; stroke-dashoffset: 0; stroke-linejoin: miter; stroke-miterlimit: 10; fill: rgb(112,157,44); fill-rule: nonzero; opacity: 1;"  paint-order="stroke"  transform=" translate(-688.2460000000001, -443.4275)" d="M 621.777 408.41 C 666.793 414.10200000000003 710.027 425.60200000000003 750.801 442.07000000000005 C 752.195 454.19500000000005 753.48 466.31300000000005 754.715 478.44500000000005 C 712.2810000000001 472.45300000000003 669.75 466.96500000000003 626.988 462.65600000000006 C 625.508 444.51200000000006 623.859 426.40200000000004 621.777 408.4100000000001" stroke-linecap="round" />
</g>
		<g transform="matrix(0.25 0 0 -0.25 71.69405000000006 79.15406250000004)"  >
<path style="stroke: none; stroke-width: 1; stroke-dasharray: none; stroke-linecap: butt; stroke-dashoffset: 0; stroke-linejoin: miter; stroke-miterlimit: 10; fill: rgb(93,151,48); fill-rule: nonzero; opacity: 1;"  paint-order="stroke"  transform=" translate(-842.3005, -627.6115)" d="M 919.723 658.711 L 766.859 633.246 C 766.125 620.996 765.313 608.754 764.4920000000001 596.512 C 816.316 612.762 868.152 629.102 920.109 645.207 C 919.984 649.715 919.9490000000001 654.227 919.7230000000001 658.711" stroke-linecap="round" />
</g>
		<g transform="matrix(0.25 0 0 -0.25 71.07305000000002 93.77106250000006)"  >
<path style="stroke: none; stroke-width: 1; stroke-dasharray: none; stroke-linecap: butt; stroke-dashoffset: 0; stroke-linejoin: miter; stroke-miterlimit: 10; fill: rgb(128,204,40); fill-rule: nonzero; opacity: 1;"  paint-order="stroke"  transform=" translate(-839.821160762589, -569.2439999999999)" d="M 919.387 551.598 C 919.938 583.059 920.9609999999999 614.3159999999999 920.1089999999999 645.207 C 868.1519999999999 629.102 816.3159999999999 612.762 764.492 596.512 C 762.9449999999999 573.5509999999999 761.1479999999999 550.598 759.207 527.641 C 788.77 517.0659999999999 818.012 505.59399999999994 846.93 493.28099999999995 C 872.7149999999999 510.60499999999996 897.02 530.0659999999999 919.387 551.598" stroke-linecap="round" />
</g>
		<g transform="matrix(0.25 0 0 -0.25 61.30605000000003 110.35006250000006)"  >
<path style="stroke: none; stroke-width: 1; stroke-dasharray: none; stroke-linecap: butt; stroke-dashoffset: 0; stroke-linejoin: miter; stroke-miterlimit: 10; fill: rgb(158,214,48); fill-rule: nonzero; opacity: 1;"  paint-order="stroke"  transform=" translate(-800.8225, -503.04299999999995)" d="M 759.207 527.641 C 757.809 511.24199999999996 756.375 494.84399999999994 754.715 478.44499999999994 C 784.695 482.67599999999993 814.645 487.12899999999996 844.57 491.63699999999994 C 845.3670000000001 492.15999999999997 846.129 492.7459999999999 846.9300000000001 493.28099999999995 C 818.0120000000001 505.59399999999994 788.7700000000001 517.0659999999999 759.2070000000001 527.641" stroke-linecap="round" />
</g>
		<g transform="matrix(0.25 0 0 -0.25 60.52105000000006 119.41406250000009)"  >
<path style="stroke: none; stroke-width: 1; stroke-dasharray: none; stroke-linecap: butt; stroke-dashoffset: 0; stroke-linejoin: miter; stroke-miterlimit: 10; fill: rgb(113,161,47); fill-rule: nonzero; opacity: 1;"  paint-order="stroke"  transform=" translate(-797.6855, -466.8535)" d="M 750.801 442.07 C 783.832 455.406 815.1800000000001 472.109 844.57 491.637 C 814.6450000000001 487.129 784.695 482.676 754.715 478.445 C 753.48 466.313 752.195 454.195 750.801 442.07" stroke-linecap="round" />
</g>
		<g transform="matrix(0.25 0 0 -0.25 102.98505 71.07406250000005)"  >
<path style="stroke: none; stroke-width: 1; stroke-dasharray: none; stroke-linecap: butt; stroke-dashoffset: 0; stroke-linejoin: miter; stroke-miterlimit: 10; fill: rgb(162,203,30); fill-rule: nonzero; opacity: 1;"  paint-order="stroke"  transform=" translate(-967.2465000000001, -659.875)" d="M 1014.44 673.996 C 1014.5500000000001 674.18 1014.6700000000001 674.359 1014.7700000000001 674.543 L 919.7230000000001 658.711 C 919.9490000000001 654.227 919.984 649.715 920.109 645.207 C 951.4960000000001 654.938 982.945 664.531 1014.44 673.996" stroke-linecap="round" />
</g>
		<g transform="matrix(0.25 0 0 -0.25 102.90205000000003 82.86406250000007)"  >
<path style="stroke: none; stroke-width: 1; stroke-dasharray: none; stroke-linecap: butt; stroke-dashoffset: 0; stroke-linejoin: miter; stroke-miterlimit: 10; fill: rgb(169,167,31); fill-rule: nonzero; opacity: 1;"  paint-order="stroke"  transform=" translate(-966.9135000000001, -612.797)" d="M 1014.44 673.996 C 982.945 664.531 951.4960000000001 654.938 920.109 645.207 C 920.961 614.316 919.938 583.059 919.3870000000001 551.598 C 956.57 587.3789999999999 988.6680000000001 628.582 1014.44 673.996" stroke-linecap="round" />
</g>
		<g transform="matrix(0.25 0 0 -0.25 -32.67694999999992 -38.04893749999994)"  >
<path style="stroke: none; stroke-width: 1; stroke-dasharray: none; stroke-linecap: butt; stroke-dashoffset: 0; stroke-linejoin: miter; stroke-miterlimit: 10; fill: rgb(102,182,232); fill-rule: nonzero; opacity: 1;"  paint-order="stroke"  transform=" translate(-425.547, -1095.6045)" d="M 315.254 1177.6 L 533.133 964.699 C 534.0310000000001 965.0229999999999 534.9300000000001 965.367 535.84 965.684 C 518.258 1054.45 493.18000000000006 1141.75 461.41 1226.51 C 412.91400000000004 1208.89 364.16 1192.79 315.254 1177.6" stroke-linecap="round" />
</g>
		<g transform="matrix(0.25 0 0 -0.25 7.5910500000000525 -47.30893749999993)"  >
<path style="stroke: none; stroke-width: 1; stroke-dasharray: none; stroke-linecap: butt; stroke-dashoffset: 0; stroke-linejoin: miter; stroke-miterlimit: 10; fill: rgb(90,160,220); fill-rule: nonzero; opacity: 1;"  paint-order="stroke"  transform=" translate(-586.336, -1132.5769999999998)" d="M 461.41 1226.51 C 493.18 1141.75 518.258 1054.45 535.84 965.684 C 595.6800000000001 986.9689999999999 654.301 1011.18 711.2620000000001 1038.61 C 691.1600000000001 1126.32 665.422 1213.1299999999999 637.6410000000001 1299.4699999999998 C 579.508 1271.9299999999998 520.6640000000001 1248.0299999999997 461.4100000000001 1226.5099999999998" stroke-linecap="round" />
</g>
		<g transform="matrix(0.25 0 0 -0.25 50.335050000000024 -69.84893749999995)"  >
<path style="stroke: none; stroke-width: 1; stroke-dasharray: none; stroke-linecap: butt; stroke-dashoffset: 0; stroke-linejoin: miter; stroke-miterlimit: 10; fill: rgb(79,132,204); fill-rule: nonzero; opacity: 1;"  paint-order="stroke"  transform=" translate(-757.0119999999998, -1222.5800000000002)" d="M 828.223 1406.55 C 825.031 1404.31 821.7769999999999 1402.1399999999999 818.3979999999999 1400.07 C 759.1449999999999 1361.4299999999998 698.7769999999999 1328.4299999999998 637.6409999999998 1299.47 C 665.4219999999998 1213.13 691.1599999999999 1126.32 711.2619999999998 1038.6100000000001 C 768.1839999999999 1066.0300000000002 823.3479999999998 1096.8400000000001 876.3829999999998 1131.2800000000002 C 864.8709999999999 1219.3400000000001 851.6519999999998 1307.67 842.8359999999998 1397.2500000000002 C 838.0119999999998 1400.4200000000003 833.1479999999998 1403.5300000000002 828.2229999999997 1406.5500000000002" stroke-linecap="round" />
</g>
		<g transform="matrix(0.25 0 0 -0.25 91.99105000000003 -80.28793749999997)"  >
<path style="stroke: none; stroke-width: 1; stroke-dasharray: none; stroke-linecap: butt; stroke-dashoffset: 0; stroke-linejoin: miter; stroke-miterlimit: 10; fill: rgb(83,186,213); fill-rule: nonzero; opacity: 1;"  paint-order="stroke"  transform=" translate(-923.348, -1264.2649999999999)" d="M 842.836 1397.25 C 851.652 1307.67 864.871 1219.34 876.383 1131.28 C 920.484 1159.91 963.105 1191.05 1003.86 1225.1299999999999 C 1003.84 1227.2299999999998 1003.83 1229.32 1003.82 1231.4199999999998 C 962.605 1297.8899999999999 907.6170000000001 1354.6 842.836 1397.2499999999998" stroke-linecap="round" />
</g>
		<g transform="matrix(0.25 0 0 -0.25 112.48005000000006 -71.27493749999994)"  >
<path style="stroke: none; stroke-width: 1; stroke-dasharray: none; stroke-linecap: butt; stroke-dashoffset: 0; stroke-linejoin: miter; stroke-miterlimit: 10; fill: rgb(112,165,221); fill-rule: nonzero; opacity: 1;"  paint-order="stroke"  transform=" translate(-1005.1600000000001, -1228.275)" d="M 1003.82 1231.42 C 1003.83 1229.3200000000002 1003.84 1227.23 1003.86 1225.13 C 1004.73 1225.8600000000001 1005.63 1226.5400000000002 1006.5 1227.2700000000002 C 1005.64 1228.6800000000003 1004.69 1230.0200000000002 1003.82 1231.4200000000003" stroke-linecap="round" />
</g>
		<g transform="matrix(0.25 0 0 -0.25 20.615050000000053 -0.08393749999996203)"  >
<path style="stroke: none; stroke-width: 1; stroke-dasharray: none; stroke-linecap: butt; stroke-dashoffset: 0; stroke-linejoin: miter; stroke-miterlimit: 10; fill: rgb(94,180,232); fill-rule: nonzero; opacity: 1;"  paint-order="stroke"  transform=" translate(-638.3399999999999, -944.01)" d="M 535.84 965.684 C 536.125 964.184 536.426 962.6949999999999 536.711 961.199 L 651.121 849.41 C 681.2189999999999 858.0659999999999 711.137 867.3399999999999 740.8399999999999 877.188 C 733.6289999999999 931.398 723.5039999999999 985.1759999999999 711.262 1038.61 C 654.301 1011.18 595.68 986.969 535.84 965.684" stroke-linecap="round" />
</g>
		<g transform="matrix(0.25 0 0 -0.25 62.08305000000007 -15.166937499999989)"  >
<path style="stroke: none; stroke-width: 1; stroke-dasharray: none; stroke-linecap: butt; stroke-dashoffset: 0; stroke-linejoin: miter; stroke-miterlimit: 10; fill: rgb(79,118,196); fill-rule: nonzero; opacity: 1;"  paint-order="stroke"  transform=" translate(-803.9219999999999, -1004.2339999999999)" d="M 711.262 1038.61 C 723.5039999999999 985.1759999999999 733.6289999999999 931.3979999999999 740.8399999999999 877.1879999999999 C 793.559 894.6639999999999 845.52 914.1559999999998 896.5819999999999 935.5819999999999 C 892.4689999999998 1000.9499999999998 884.9099999999999 1066.04 876.3829999999999 1131.28 C 823.348 1096.84 768.184 1066.03 711.262 1038.61" stroke-linecap="round" />
</g>
		<g transform="matrix(0.25 0 0 -0.25 96.34705000000002 -34.23093749999995)"  >
<path style="stroke: none; stroke-width: 1; stroke-dasharray: none; stroke-linecap: butt; stroke-dashoffset: 0; stroke-linejoin: miter; stroke-miterlimit: 10; fill: rgb(85,192,231); fill-rule: nonzero; opacity: 1;"  paint-order="stroke"  transform=" translate(-940.7415000000001, -1080.356)" d="M 876.383 1131.28 C 884.9100000000001 1066.04 892.469 1000.9499999999999 896.582 935.582 C 933.293 950.98 969.453 967.531 1005.1 985.063 C 1004.98 1064.8899999999999 1004.27 1144.76 1003.86 1225.13 C 963.105 1191.0500000000002 920.484 1159.91 876.383 1131.2800000000002" stroke-linecap="round" />
</g>
		<g transform="matrix(0.25 0 0 -0.25 121.64205000000004 -40.69493749999995)"  >
<path style="stroke: none; stroke-width: 1; stroke-dasharray: none; stroke-linecap: butt; stroke-dashoffset: 0; stroke-linejoin: miter; stroke-miterlimit: 10; fill: rgb(89,149,211); fill-rule: nonzero; opacity: 1;"  paint-order="stroke"  transform=" translate(-1041.7450000000001, -1106.1664999999998)" d="M 1006.5 1227.27 C 1005.63 1226.54 1004.73 1225.86 1003.86 1225.1299999999999 C 1004.27 1144.7599999999998 1004.98 1064.8899999999999 1005.1 985.0629999999999 C 1030.23 997.4139999999999 1055.13 1010.1799999999998 1079.63 1023.6799999999998 C 1068.8700000000001 1097.4799999999998 1043.48 1166.4099999999999 1006.5000000000001 1227.2699999999998" stroke-linecap="round" />
</g>
		<g transform="matrix(0.25 0 0 -0.25 -5.284949999999981 -4.950937499999981)"  >
<path style="stroke: none; stroke-width: 1; stroke-dasharray: none; stroke-linecap: butt; stroke-dashoffset: 0; stroke-linejoin: miter; stroke-miterlimit: 10; fill: rgb(79,142,204); fill-rule: nonzero; opacity: 1;"  paint-order="stroke"  transform=" translate(-534.922, -963.4414999999999)" d="M 533.133 964.699 L 536.711 961.199 C 536.426 962.6949999999999 536.125 964.184 535.84 965.684 C 534.9300000000001 965.367 534.0310000000001 965.023 533.133 964.699" stroke-linecap="round" />
</g>
		<g transform="matrix(0.25 0 0 -0.25 98.75405 24.92806250000004)"  >
<path style="stroke: none; stroke-width: 1; stroke-dasharray: none; stroke-linecap: butt; stroke-dashoffset: 0; stroke-linejoin: miter; stroke-miterlimit: 10; fill: rgb(97,196,240); fill-rule: nonzero; opacity: 1;"  paint-order="stroke"  transform=" translate(-950.3504999635194, -844.137)" d="M 1005.1 985.063 C 969.453 967.531 933.293 950.98 896.582 935.582 C 900.797 868.5699999999999 901.3439999999999 801.27 895.582 733.25 L 1001.63 703.211 C 1004.55 797.586 1005.25 891.297 1005.1 985.063" stroke-linecap="round" />
</g>
		<g transform="matrix(0.25 0 0 -0.25 122.09305000000006 20.97006250000004)"  >
<path style="stroke: none; stroke-width: 1; stroke-dasharray: none; stroke-linecap: butt; stroke-dashoffset: 0; stroke-linejoin: miter; stroke-miterlimit: 10; fill: rgb(90,160,220); fill-rule: nonzero; opacity: 1;"  paint-order="stroke"  transform=" translate(-1043.545, -859.9375000000001)" d="M 1085.46 943.75 C 1085.46 970.918 1083.45 997.598 1079.63 1023.6800000000001 C 1055.13 1010.1800000000001 1030.23 997.4140000000001 1005.1000000000001 985.0630000000001 C 1005.2500000000001 891.2970000000001 1004.5500000000002 797.5860000000001 1001.6300000000001 703.2110000000001 L 1026.39 696.1950000000002 C 1064.0600000000002 770.3670000000002 1085.46 854.4840000000002 1085.46 943.7500000000002" stroke-linecap="round" />
</g>
		<g transform="matrix(0.25 0 0 -0.25 66.19205000000005 33.792062500000014)"  >
<path style="stroke: none; stroke-width: 1; stroke-dasharray: none; stroke-linecap: butt; stroke-dashoffset: 0; stroke-linejoin: miter; stroke-miterlimit: 10; fill: rgb(78,195,189); fill-rule: nonzero; opacity: 1;"  paint-order="stroke"  transform=" translate(-820.3326535747697, -808.74)" d="M 896.582 935.582 C 845.52 914.156 793.559 894.664 740.84 877.188 C 749.418 812.77 753.82 747.7339999999999 752.734 681.898 L 762 682.359 L 849.309 746.363 L 895.582 733.25 C 901.3439999999999 801.27 900.797 868.5699999999999 896.582 935.582" stroke-linecap="round" />
</g>
		<g transform="matrix(0.25 0 0 -0.25 27.94205000000005 41.721062500000045)"  >
<path style="stroke: none; stroke-width: 1; stroke-dasharray: none; stroke-linecap: butt; stroke-dashoffset: 0; stroke-linejoin: miter; stroke-miterlimit: 10; fill: rgb(96,147,212); fill-rule: nonzero; opacity: 1;"  paint-order="stroke"  transform=" translate(-667.5987361617401, -777.0805)" d="M 740.84 877.188 C 711.137 867.34 681.219 858.066 651.121 849.41 L 702.781 798.918 L 582.3009999999999 734.723 L 651.395 676.973 L 752.7339999999999 681.8979999999999 C 753.8199999999999 747.7339999999999 749.4179999999999 812.77 740.8399999999999 877.1879999999999" stroke-linecap="round" />
</g>
		<g transform="matrix(0.25 0 0 -0.25 -50.15694999999994 -92.14793749999998)"  >
<path style="stroke: none; stroke-width: 1; stroke-dasharray: none; stroke-linecap: butt; stroke-dashoffset: 0; stroke-linejoin: miter; stroke-miterlimit: 10; fill: rgb(119,171,224); fill-rule: nonzero; opacity: 1;"  paint-order="stroke"  transform=" translate(-355.75, -1311.62)" d="M 260.949 1391.64 C 260.113 1341 256.598 1290.89 250.09 1241.28 L 315.254 1177.6 C 364.16 1192.79 412.914 1208.8899999999999 461.41 1226.51 C 433.16400000000004 1301.82 399.637 1375.09 361.56600000000003 1445.6399999999999 C 325.97700000000003 1431.29 292.273 1413.1299999999999 260.949 1391.6399999999999" stroke-linecap="round" />
</g>
		<g transform="matrix(0.25 0 0 -0.25 -14.129949999999951 -102.98793749999996)"  >
<path style="stroke: none; stroke-width: 1; stroke-dasharray: none; stroke-linecap: butt; stroke-dashoffset: 0; stroke-linejoin: miter; stroke-miterlimit: 10; fill: rgb(70,177,200); fill-rule: nonzero; opacity: 1;"  paint-order="stroke"  transform=" translate(-499.60350000000005, -1354.9049999999997)" d="M 556.004 1483.3 C 487.32000000000005 1483.3 421.742 1469.93 361.56600000000003 1445.6399999999999 C 399.63700000000006 1375.09 433.16400000000004 1301.82 461.41 1226.5099999999998 C 520.664 1248.0299999999997 579.508 1271.9299999999998 637.6410000000001 1299.4699999999998 C 617.926 1360.7699999999998 597.215 1421.85 576.7660000000001 1482.8599999999997 C 569.8670000000001 1483.1299999999997 562.9610000000001 1483.2999999999997 556.0040000000001 1483.2999999999997" stroke-linecap="round" />
</g>
		<g transform="matrix(0.25 0 0 -0.25 36.68105000000003 -112.06893749999998)"  >
<path style="stroke: none; stroke-width: 1; stroke-dasharray: none; stroke-linecap: butt; stroke-dashoffset: 0; stroke-linejoin: miter; stroke-miterlimit: 10; fill: rgb(60,138,186); fill-rule: nonzero; opacity: 1;"  paint-order="stroke"  transform=" translate(-702.4945, -1391.165)" d="M 828.223 1406.55 C 754.23 1451.84 668.5039999999999 1479.24 576.766 1482.86 C 597.2149999999999 1421.85 617.9259999999999 1360.77 637.641 1299.4699999999998 C 698.7769999999999 1328.4299999999998 759.145 1361.4299999999998 818.3979999999999 1400.0699999999997 C 821.7769999999999 1402.1399999999996 825.031 1404.3099999999997 828.223 1406.5499999999997" stroke-linecap="round" />
</g>
		<g transform="matrix(0.25 0 0 -0.25 -84.87794999999997 -93.35993749999997)"  >
<path style="stroke: none; stroke-width: 1; stroke-dasharray: none; stroke-linecap: butt; stroke-dashoffset: 0; stroke-linejoin: miter; stroke-miterlimit: 10; fill: rgb(100,196,223); fill-rule: nonzero; opacity: 1;"  paint-order="stroke"  transform=" translate(-217.10749999999996, -1316.46)" d="M 173.266 1316.35 L 250.08999999999997 1241.28 C 256.59799999999996 1290.8899999999999 260.113 1341 260.94899999999996 1391.6399999999999 C 229.10199999999995 1369.79 199.69899999999996 1344.53 173.26599999999996 1316.35" stroke-linecap="round" />
</g>
		<g transform="matrix(0.25 0 0 -0.25 -118.64694999999995 34.826062500000006)"  >
<path style="stroke: none; stroke-width: 1; stroke-dasharray: none; stroke-linecap: butt; stroke-dashoffset: 0; stroke-linejoin: miter; stroke-miterlimit: 10; fill: rgb(117,208,245); fill-rule: nonzero; opacity: 1;"  paint-order="stroke"  transform=" translate(-82.26765, -804.613)" d="M 62.8203 747.371 C 71.0898 763.781 80.1914 779.73 90.5781 795.016 C 104.46900000000001 817.18 117.391 839.4649999999999 129.383 861.855 C 97.96090000000001 856.379 66.5352 851.309 35.15230000000001 846.711 C 41.28520000000001 812.352 50.62890000000001 779.133 62.82030000000001 747.371" stroke-linecap="round" />
</g>
		<g transform="matrix(0.25 0 0 -0.25 -70.52094999999997 28.74006250000005)"  >
<path style="stroke: none; stroke-width: 1; stroke-dasharray: none; stroke-linecap: butt; stroke-dashoffset: 0; stroke-linejoin: miter; stroke-miterlimit: 10; fill: rgb(90,176,230); fill-rule: nonzero; opacity: 1;"  paint-order="stroke"  transform=" translate(-274.4355, -828.914)" d="M 203.789 875.711 C 202.80499999999998 875.516 201.80499999999998 875.336 200.82 875.141 C 206.88299999999998 852.848 212.055 830.1129999999999 216.12099999999998 806.8979999999999 L 348.051 782.117 L 207.891 853.1129999999999 L 203.789 875.7109999999999" stroke-linecap="round" />
</g>
		<g transform="matrix(0.25 0 0 -0.25 -82.55194999999998 65.75206250000005)"  >
<path style="stroke: none; stroke-width: 1; stroke-dasharray: none; stroke-linecap: butt; stroke-dashoffset: 0; stroke-linejoin: miter; stroke-miterlimit: 10; fill: rgb(116,195,238); fill-rule: nonzero; opacity: 1;"  paint-order="stroke"  transform=" translate(-226.39649999999997, -681.123)" d="M 223.879 720.715 C 224.44899999999998 693.883 223.504 667.5550000000001 221.35899999999998 641.5310000000001 L 231.43399999999997 646.32 L 223.87899999999996 720.715" stroke-linecap="round" />
</g>
		<g transform="matrix(0.25 0 0 -0.25 -103.32894999999994 51.009062500000056)"  >
<path style="stroke: none; stroke-width: 1; stroke-dasharray: none; stroke-linecap: butt; stroke-dashoffset: 0; stroke-linejoin: miter; stroke-miterlimit: 10; fill: rgb(118,184,232); fill-rule: nonzero; opacity: 1;"  paint-order="stroke"  transform=" translate(-143.431151332995, -739.9945)" d="M 223.879 720.715 L 219.551 763.441 C 172.17999999999998 757.727 124.87099999999998 753.0590000000001 77.80859999999998 749.477 C 124.87099999999998 753.059 172.17999999999998 757.727 219.551 763.441 L 215.125 807.09 L 216.121 806.898 C 212.055 830.113 206.883 852.8480000000001 200.82000000000002 875.1410000000001 C 177.031 870.422 153.21500000000003 866.023 129.38300000000004 861.8550000000001 C 117.391 839.465 104.469 817.18 90.5781 795.016 C 80.1914 779.73 71.0898 763.781 62.8203 747.371 C 82.7461 695.477 110.305 647.484 144.137 604.848 L 221.35899999999998 641.531 C 223.504 667.555 224.44899999999998 693.8829999999999 223.879 720.7149999999999" stroke-linecap="round" />
</g>
		<g transform="matrix(0.25 0 0 -0.25 -114.06694999999996 -9.568937499999976)"  >
<path style="stroke: none; stroke-width: 1; stroke-dasharray: none; stroke-linecap: butt; stroke-dashoffset: 0; stroke-linejoin: miter; stroke-miterlimit: 10; fill: rgb(60,138,186); fill-rule: nonzero; opacity: 1;"  paint-order="stroke"  transform=" translate(-100.5546, -981.8805)" d="M 48.8164 1098.92 C 34.3555 1049.78 26.5352 997.703 26.5352 943.75 C 26.5352 910.613 29.5273 878.1949999999999 35.1523 846.711 C 66.5352 851.309 97.9609 856.379 129.38299999999998 861.855 C 146.29299999999998 893.438 161.242 925.2620000000001 174.57399999999998 957.309 C 154.96099999999998 1011.56 132.266 1064.21 110.89099999999999 1117.05 C 90.19139999999999 1111.03 69.46879999999999 1105.05 48.816399999999994 1098.9199999999998" stroke-linecap="round" />
</g>
		<g transform="matrix(0.25 0 0 -0.25 -102.26094999999995 -25.121937499999973)"  >
<path style="stroke: none; stroke-width: 1; stroke-dasharray: none; stroke-linecap: butt; stroke-dashoffset: 0; stroke-linejoin: miter; stroke-miterlimit: 10; fill: rgb(85,149,214); fill-rule: nonzero; opacity: 1;"  paint-order="stroke"  transform=" translate(-147.6955, -1043.9845)" d="M 157.441 1130.66 C 141.90200000000002 1126.15 126.418 1121.5700000000002 110.891 1117.0500000000002 C 132.26600000000002 1064.2100000000003 154.961 1011.5600000000002 174.574 957.3090000000002 C 177.965 965.4690000000002 181.32000000000002 973.6250000000002 184.5 981.8160000000001 L 157.441 1130.66" stroke-linecap="round" />
</g>
		<g transform="matrix(0.25 0 0 -0.25 -97.90194999999994 8.538062500000024)"  >
<path style="stroke: none; stroke-width: 1; stroke-dasharray: none; stroke-linecap: butt; stroke-dashoffset: 0; stroke-linejoin: miter; stroke-miterlimit: 10; fill: rgb(84,146,212); fill-rule: nonzero; opacity: 1;"  paint-order="stroke"  transform=" translate(-165.1015, -909.582)" d="M 129.383 861.855 C 153.215 866.023 177.031 870.422 200.82 875.141 C 193.215 903.082 184.301 930.41 174.57399999999998 957.309 C 161.242 925.262 146.29299999999998 893.438 129.38299999999998 861.855" stroke-linecap="round" />
</g>
		<g transform="matrix(0.25 0 0 -0.25 -91.87194999999994 3.8050625000000196)"  >
<path style="stroke: none; stroke-width: 1; stroke-dasharray: none; stroke-linecap: butt; stroke-dashoffset: 0; stroke-linejoin: miter; stroke-miterlimit: 10; fill: rgb(86,138,207); fill-rule: nonzero; opacity: 1;"  paint-order="stroke"  transform=" translate(-189.18150000000003, -928.4785)" d="M 184.5 981.816 C 181.32 973.625 177.965 965.469 174.574 957.3090000000001 C 184.30100000000002 930.4100000000001 193.215 903.0820000000001 200.82000000000002 875.1410000000001 C 201.80500000000004 875.3360000000001 202.80500000000004 875.5160000000001 203.78900000000002 875.7110000000001 L 184.5 981.816" stroke-linecap="round" />
</g>
		<g transform="matrix(0.25 0 0 -0.25 -119.25094999999996 -49.992937499999954)"  >
<path style="stroke: none; stroke-width: 1; stroke-dasharray: none; stroke-linecap: butt; stroke-dashoffset: 0; stroke-linejoin: miter; stroke-miterlimit: 10; fill: rgb(97,179,219); fill-rule: nonzero; opacity: 1;"  paint-order="stroke"  transform=" translate(-79.85369999999999, -1143.295)" d="M 48.8164 1098.92 C 69.4688 1105.0500000000002 90.1914 1111.03 110.89099999999999 1117.0500000000002 C 101.40199999999999 1140.4900000000002 92.1758 1163.9800000000002 83.65629999999999 1187.67 C 69.59379999999999 1159.43 57.89449999999999 1129.75 48.81639999999999 1098.92" stroke-linecap="round" />
</g>
		<g transform="matrix(0.25 0 0 -0.25 -109.05994999999996 -62.27593749999997)"  >
<path style="stroke: none; stroke-width: 1; stroke-dasharray: none; stroke-linecap: butt; stroke-dashoffset: 0; stroke-linejoin: miter; stroke-miterlimit: 10; fill: rgb(102,198,239); fill-rule: nonzero; opacity: 1;"  paint-order="stroke"  transform=" translate(-120.54864999999998, -1192.3400000000001)" d="M 132.539 1267.63 C 114.05899999999998 1242.5800000000002 97.68749999999999 1215.8400000000001 83.65629999999999 1187.67 C 92.17579999999998 1163.98 101.40199999999999 1140.49 110.89099999999999 1117.0500000000002 C 126.41799999999999 1121.5700000000002 141.902 1126.15 157.44099999999997 1130.66 L 132.539 1267.63" stroke-linecap="round" />
</g>
</g>
</g>
</svg>